<?xml version="1.0" standalone="no"?>
<!DOCTYPE svg PUBLIC "-//W3C//DTD SVG 20010904//EN"
 "http://www.w3.org/TR/2001/REC-SVG-20010904/DTD/svg10.dtd">
<svg version="1.0" xmlns="http://www.w3.org/2000/svg"
 width="1280.000000pt" height="640.000000pt" viewBox="0 0 1280.000000 640.000000"
 preserveAspectRatio="xMidYMid meet">
<metadata>
Created by potrace 1.15, written by Peter Selinger 2001-2017
</metadata>
<g transform="translate(0.000000,640.000000) scale(0.100000,-0.100000)"
fill="#000000" stroke="none">
<path d="M12300 4781 c-90 -33 -105 -42 -108 -62 l-3 -24 -217 -2 c-119 -1
-309 -10 -422 -20 -270 -23 -1180 -22 -1295 2 -141 29 -299 36 -730 34 -423
-2 -433 -2 -640 26 -172 23 -243 28 -395 28 -441 -3 -707 -11 -747 -22 -28 -7
-74 -9 -130 -5 -49 3 -189 1 -313 -4 -155 -7 -342 -7 -600 0 -206 6 -440 12
-520 13 -312 5 -892 25 -1016 36 -73 6 -145 8 -162 5 -16 -4 -60 -27 -97 -51
-77 -51 -123 -74 -285 -141 -63 -27 -135 -60 -160 -74 -25 -14 -99 -45 -165
-69 -66 -24 -208 -79 -316 -122 -109 -44 -206 -79 -217 -79 -20 0 -38 -17 -57
-53 -5 -11 -49 -43 -98 -71 -206 -120 -284 -167 -308 -187 -15 -11 -57 -27
-95 -35 -74 -15 -282 -115 -344 -166 -38 -29 -217 -112 -310 -143 -30 -10 -85
-33 -122 -52 -38 -18 -139 -58 -225 -87 -87 -30 -232 -82 -322 -115 -91 -34
-172 -61 -181 -61 -10 0 -28 -8 -41 -19 -13 -10 -40 -26 -59 -36 -19 -10 -57
-35 -85 -56 -66 -50 -123 -73 -240 -98 -77 -16 -122 -34 -219 -85 -66 -35
-155 -78 -197 -95 -42 -18 -84 -41 -94 -51 -10 -11 -22 -50 -28 -95 l-11 -75
-85 0 c-79 1 -84 2 -66 16 11 8 28 13 37 11 12 -4 19 3 23 25 4 16 5 32 2 34
-2 3 -58 8 -124 11 l-120 6 -122 -48 -121 -49 2 -245 3 -246 30 2 c17 2 81 3
143 4 91 1 112 4 112 16 0 12 8 13 38 8 20 -3 143 -8 272 -10 129 -2 262 -9
295 -16 33 -6 69 -11 80 -11 22 0 285 -13 560 -28 94 -5 267 -14 385 -20 179
-8 492 -28 1196 -77 52 -3 124 -1 170 6 124 18 459 16 589 -4 90 -14 182 -17
515 -16 223 1 464 -3 535 -8 72 -5 229 -17 350 -26 121 -9 238 -14 260 -11 22
3 132 0 244 -6 154 -8 208 -8 222 0 41 26 413 11 639 -25 118 -19 204 -22 332
-10 79 6 90 5 107 -12 13 -13 38 -20 87 -23 63 -4 71 -3 92 20 l24 25 226 -6
c242 -6 383 -20 420 -43 18 -12 22 -24 22 -64 l0 -50 159 0 c87 0 171 -2 187
-5 24 -5 42 4 102 47 71 52 72 53 73 98 l1 45 131 88 c73 49 164 111 202 138
39 28 192 111 342 185 261 130 275 138 324 195 58 67 90 86 199 118 41 13 103
40 137 61 49 29 85 42 156 55 138 24 183 42 241 94 28 25 107 93 176 151 69
57 168 142 220 189 104 92 176 132 285 157 39 8 75 19 81 22 36 22 116 80 239
172 109 82 190 132 365 224 124 66 245 130 270 143 25 14 36 18 26 9 -11 -9
-24 -16 -30 -16 -5 0 -7 -2 -4 -5 5 -5 238 85 298 115 19 10 64 39 99 65 l63
47 82 -7 82 -7 61 38 c33 22 75 47 92 56 l31 17 0 256 c0 196 -3 257 -12 260
-7 2 -94 6 -193 9 l-180 5 -105 -38z"/>
</g>
</svg>
